<svg xmlns="http://www.w3.org/2000/svg" viewBox="0 0 24 24" fill="#94a3b8">
  <!-- 12 Dashes for the face -->
  <rect x="11" y="2" width="2" height="4" transform="rotate(0 12 12)" />
  <rect x="11" y="2" width="2" height="4" transform="rotate(30 12 12)" />
  <rect x="11" y="2" width="2" height="4" transform="rotate(60 12 12)" />
  <rect x="11" y="2" width="2" height="4" transform="rotate(90 12 12)" />
  <rect x="11" y="2" width="2" height="4" transform="rotate(120 12 12)" />
  <rect x="11" y="2" width="2" height="4" transform="rotate(150 12 12)" />
  <rect x="11" y="2" width="2" height="4" transform="rotate(180 12 12)" />
  <rect x="11" y="2" width="2" height="4" transform="rotate(210 12 12)" />
  <rect x="11" y="2" width="2" height="4" transform="rotate(240 12 12)" />
  <rect x="11" y="2" width="2" height="4" transform="rotate(270 12 12)" />
  <rect x="11" y="2" width="2" height="4" transform="rotate(300 12 12)" />
  <rect x="11" y="2" width="2" height="4" transform="rotate(330 12 12)" />
  
  <!-- Hands -->
  <polygon points="11,12 11,7 13,7 13,12 18,12 18,14 11,14" />
</svg>
